<?xml version="1.0" encoding="UTF-8"?>
<svg id="Capa_1" xmlns="http://www.w3.org/2000/svg" baseProfile="tiny" version="1.2" viewBox="0 0 512 512">
  <!-- Generator: Adobe Illustrator 30.0.0, SVG Export Plug-In . SVG Version: 2.1.1 Build 123)  -->
  <path d="M393.18,245.38c1.65-.02,2.75-2.66,5.51-2.68,5.13-.04,2.71,5.11,1.57,7.92-2.9,7.14-12.19,21.87,3.15,20.99,15.57-.89,38.21-11.4,54.21-15.58,10.16-2.66,35.38-8.66,43.69-.96.91.84,2.28,2.48.76,3.43-4.93-6.66-16.13-5.07-23.47-4.04-20.39,2.86-38.91,12.23-58.54,17.55-10.99,2.98-31.11,7.88-34.66-7.61-.22-.96.98-2.81-.88-2.76-1.36.04-15.31,11.79-21.74,12.9-11.16,1.93-13.51-9.16-8.13-17.05.98-1.44,3.13-2.21,2.85-4.23-6.66.52-14.36,1.85-20.3-2-4.02-2.61-2.72-4.81-8.56-1.95-5.41,2.65-10.06,8.48-13.33,13.43-2.82,4.28-5.1,10.72-7.74,14.3-1.94,2.63-6.13,1.36-6.16-1.48-.01-1.39,2.65-7.89,3.36-9.71s2.4-4.49,2.87-6.05c.22-.73-.05-.93-.77-.77-4.55,4.1-9.78,8.06-15.01,11.23-6.65,4.04-19.33,11.07-26.37,4.95-3.55-3.08-2.45-5.88-2.97-9.64-.1-.74.29-.89-.8-.78-3.5,2.39-6.34,5.6-9.85,8-5.49,3.75-16.74,10.19-22.17,3.57l-2.07-3.68c-10.05,8.39-26.65,23.65-40.82,21.38-16.48-2.64-6.71-28.98-3.25-38.68,13-36.5,34.39-67.39,50.45-101.73.63-1.35,3.02-5.67,2.3-6.68-1.37-1.26-4.6.94-6.16,1.77-10.68,5.68-24.05,17.88-32.98,26.31-42.87,40.45-76.83,90.4-111.51,137.75-2.55,4.53-11.43,3.78-9.55-2.2,1.17-3.73,5.32-10.4,7.37-14.14,22.66-41.43,50-83.14,62.16-129.38,5.07-19.26,8.13-42.44-20.09-34.78-33.38,9.05-79.45,46.69-99.92,74.3-9.51,12.83-21.7,35.89,4.42,37.22v1.57c-22.48-.85-25.18-14.23-15.5-32.02,16.89-31.04,71-73.06,105.11-82.23,10.66-2.86,27.63-5.65,34.24,5.87,4.7,8.21,1.07,27.36-1.33,36.48-7.86,29.95-22.02,58.36-36.47,85.53,1.03.24,1.24-.53,1.79-1.09,8.22-8.48,16.08-20.36,23.94-29.59,22.57-26.52,58.56-66.41,88.19-83.93,3.77-2.23,11.4-6.76,12.84.19,1.17,5.62-6.16,20.2-8.76,25.93-13.44,29.67-29.76,58.34-41.26,88.88-2.66,7.06-7.78,20.27-6.3,27.57,1.98,9.76,18.55-.79,22.92-3.6,9.44-6.05,15.6-11.06,21.46-20.52,4.89-7.88,12.74-15.62,21.08-19.85,7.44-3.78,20.46-7.51,18.91,5.52,15.26-10.67,2.91,10.71,1.42,16.38-4.84,18.44,15.95,4.95,22.57.53,4.1-2.74,13.42-9.51,16.12-13.27,2.49-3.48,5.7-14.96,9.59-16.13,1.78-.54,5.47.51,5.34,2.78-.2,3.63-5.32,9.65-6.24,13.38,3.81-3.3,12.39-12.29,18-8.95,2.17,1.29,1.34,5.62,7.48,7.34,16.45,4.62,24.05-11.21,38.28-12.56,4.89-.46,11.48,1.03,9.7,7.34-1.82.02-1.46-1.65-2.17-2.81-1.25-2.03-2.61-2.18-4.92-1.93-6.52.71-18.84,13.21-22.19,18.75-2.06,3.4-6.84,13.98,1.07,12.09,4.24-1.02,16.84-11.08,20.09-14.54,1.78-1.9,7.52-9.41,8.13-11.55ZM258.13,264.08c3.22-3.01,11.1-12.08,11.25-16.34.05-1.43-.4-4.4-1.98-4.89-7.38-2.27-21.38,12.63-25.04,18.31-1.36,2.11-7.26,12.8-4.44,14.57,1.04.27,2.09.07,3.11-.16,3.8-.87,13.99-8.59,17.1-11.49Z"/>
  <g>
    <path d="M382.16,298.9c.32,6.23-3.25,12.81-6.21,18.2-2.58,4.71-12.6,17.58-9.79,22.73,2.31,4.24,11.72-1.18,13.9-3.93,3.5-4.42,5.6-14.12,13.96-11.33,4.2,5.94-7.62,8.62-8.75,10.37s-.4,3.9,1.42,4.83c6.03,3.08,16.76-4.7,20.93-8.85l1.29.79c-6.77,6.9-20.83,17.06-29.11,7.21-7.38,5.98-17.44,8.99-17.33-4.33-4.29,2.99-12.51,13.31-15.75,4.2-4.93,3.96-11.18,7.58-14.19-.51-2.09-.61-10.91,10.8-13.41,2.68-.37-.22-.75-.09-1.12.03-.91.28-8.73,5.73-9.24,6.53-1.6,2.53-3.07,9.62-4.39,12.93-2.54,6.38-7.11,18-12.73,21.9-3.41,2.37-6.77.53-7.77-3.24-2.9-10.92,14.25-26.25,21.92-32.46.92-2.57,2.22-14.62,3.42-16,.27-.32,1.34-.77,1.77-.7,3.47.62-.66,10-1.02,11.97-.12.65-.18,1.46.57,1.6.56.1,7.47-4.1,8.31-4.8,2.63-2.21,4.69-5.74,7.83-7.91s11.37-5.93,11.4.64c-1.72-.18-1.04-1.63-3.4-1.58-3.74.07-11.18,6.33-10.76,10.5,5.22-1.21,8.32-6.01,12.86-8.25l1.16,1.16c-4.56,10.48,2.25,9.7,8.31,3.96,4.64-4.39,6.34-10.3,14.21-11,1.47-.13,3.36.67,4.16.02,2.77-6.1,4.48-12.58,7.89-18.39.97-1.67,7.34-11.23,9.67-8.97ZM380.58,301.53c-1.6-1.56-5.93,6.9-6.48,7.95-2.5,4.75-5.09,10.41-6.11,15.66.72-.25,1.34-1.01,1.8-1.61,1.73-2.28,12.23-20.6,10.79-22ZM385.31,332.48c.72.68,7.9-4.03,7.34-6.02-.91-3.3-7.71,3.99-7.34,6.02ZM363.22,328.34c-.36-.54-2.35-.51-3.11-.37-3.7.7-10.66,7.77-9.72,11.89,1.18,1.75,6.56-2.97,7.64-3.95,1.22-1.12,6.2-6.08,5.19-7.57ZM303.97,350.86c-.34-.38-3.45,2.24-3.92,2.64-4.4,3.76-13.22,15-13.93,20.7-1.05,8.3,3.2,9.24,7.46,2.74,2.56-3.9,5.99-11.99,7.64-16.5.42-1.15,3.08-9.21,2.75-9.58Z"/>
    <path d="M265.14,341.4c4.04-.11,7.98-4.14,10.48-7.09,1.21-1.43,3.06-6.4,5.01-4.44s-3.57,11.19-2.9,14.16c.89.93,10.97-7.26,12.54-8.19.85-.5.69-1.15,1.62.06l-15.14,11.61c-3.68,10.31-8.8,26.75-18.46,32.97-4.13,2.66-10.26,3.26-9.97-3.13.5-11.01,17.56-23.82,25.27-30.37l2.04-9.76c-1.81-.36-2.04,1.46-3.43,2.61-2.32,1.92-4.92,3.99-8.15,2.93-1.8-.59-2.79-3.85-2.37-5.54.27-1.11,4.21-8.12,5.28-7.87,4.06.95-3.17,10.7-1.83,12.07ZM271.43,351.38c-.34-.39-2.93,1.73-3.39,2.11-5.21,4.31-16.67,15.65-17.55,22.33-.64,4.87,1.09,6.16,5.37,3.8,4.28-2.37,8.82-10.32,10.95-14.77.86-1.79,5.42-12.55,4.63-13.47Z"/>
    <path d="M241,335.11c2.89-2.33,5.73-5.43,9.7-5.78,7.23-.63,7.68,4.95,5.01,10.26-1.82,3.62-14.04,10.23-16.87,6.84-1.88-2.25,3.05-5.45,2.67-4.24l-1.57,2.89c6.34.09,15.07-6.36,13.17-13.34-4.81-1.8-9.08,2.59-11.87,5.99-1.71,2.08-4.52,7.8-6.25,8.96-.67.45-1.26.68-2.08.45l-.84-1.24c4.42-11.16,8.06-23.24,13.18-34.07,1.02-2.16,5.84-12,8.49-11.31,2.89.76.97,5.73.38,7.58-3.05,9.59-10.09,17.53-13.13,27.01ZM253.06,303.63c-1.15-1.33-4.85,7.01-5.17,7.68-.75,1.59-5.79,13.25-5.32,13.83.66.81,2.57-2.75,2.84-3.19,1.49-2.33,9.13-16.62,7.65-18.32Z"/>
    <circle cx="313.05" cy="321.67" r="2.38"/>
  </g>
</svg>